<mxfile host="app.diagrams.net" modified="2023-06-26T14:56:56.225Z" agent="Mozilla/5.0 (Windows NT 10.0; Win64; x64; rv:109.0) Gecko/20100101 Firefox/114.0" version="21.4.0" etag="94T1UI8ehOE7K06vvzlg" type="github">
  <diagram name="Page-1" id="D_iCVSC_wddrdCWaSq2P">
    <mxGraphModel>
      <root>
        <mxCell id="0" />
        <mxCell id="1" parent="0" />
      </root>
    </mxGraphModel>
  </diagram>
</mxfile>
